<svg xmlns="http://www.w3.org/2000/svg" height="40" viewBox="0 -960 960 960" width="40"><path d="M693.33-80H266.67Q239-80 219.5-99.5T200-146.67v-666.66q0-27.67 19.5-47.17t47.17-19.5h426.66q27.67 0 47.17 19.5t19.5 47.17v666.66q0 27.67-19.5 47.17T693.33-80ZM535.5-625.17Q558-647.67 558-680t-22.5-54.83q-22.5-22.5-54.83-22.5-32.34 0-54.84 22.5T403.33-680q0 32.33 22.5 54.83t54.84 22.5q32.33 0 54.83-22.5Zm59.83 380.5Q642.67-292 642.67-360t-47.34-115.33Q548-522.67 480-522.67t-115.33 47.34Q317.33-428 317.33-360t47.34 115.33Q412-197.33 480-197.33t115.33-47.34Zm-183.16-47.5Q384-320.33 384-360t28.17-67.83Q440.33-456 480-456t67.83 28.17Q576-399.67 576-360t-28.17 67.83Q519.67-264 480-264t-67.83-28.17Z"/></svg>